<?xml version="1.0" standalone="no"?><!DOCTYPE svg PUBLIC "-//W3C//DTD SVG 1.1//EN" "http://www.w3.org/Graphics/SVG/1.1/DTD/svg11.dtd"><svg class="icon" width="200px" height="200.00px" viewBox="0 0 1024 1024" version="1.1" xmlns="http://www.w3.org/2000/svg"><path d="M331.9 960.1c-38.7 0-77.2-14.9-106.2-44L93.2 783.6c-34.5-34.5-39-88.4-10.6-128.2l42-58.8c24.5-34.3 52.9-65.8 84.5-93.7l134.6-118.8c14.2-12.6 27.8-26.2 40.4-40.4l118.8-134.6c27.9-31.6 59.4-60 93.7-84.5l58.8-42c39.7-28.4 93.7-23.9 128.2 10.6L916 225.7c51.4 51.4 58.6 132 17.3 191.7l-76.8 111c-22.2 32.1-55.5 54-93.8 61.7-38.2 7.7-77.4 0.4-110.4-20.5L495.1 469.5c-7.4-4.7-16.9-3.7-23.1 2.5-6.2 6.2-7.2 15.7-2.5 23.1l100.1 157.3c20.9 32.9 28.2 72.1 20.5 110.4-7.7 38.2-29.6 71.5-61.7 93.8l-111 76.8c-26 17.9-55.8 26.7-85.5 26.7zM713.2 94c-14.1 0-28.2 4.3-40.4 13L614 149c-32.4 23.2-62.3 50.1-88.6 80L406.6 363.6a486.97 486.97 0 0 1-43.1 43.1L228.9 525.4c-29.9 26.4-56.8 56.2-80 88.6l-42 58.8c-19.8 27.8-16.7 65.4 7.4 89.5l132.5 132.5c41.1 41.1 105.6 46.9 153.4 13.8l111-76.8c53.3-36.9 67.8-108.7 33-163.3l-100-157.3c-12.3-19.3-9.6-44.2 6.6-60.4 16.2-16.2 41-18.9 60.4-6.6l157.3 100.1c54.7 34.8 126.4 20.3 163.3-33l76.8-111c33.1-47.8 27.3-112.3-13.8-153.4L762.3 114.4C748.8 100.9 731.1 94 713.2 94z" fill="#1e99d9" /><path d="M717.1 799.4c-3.8 0-7.7-0.3-11.6-0.8l-133.4-18.5c-8.2-1.1-13.9-8.7-12.8-16.9 1.1-8.2 8.7-13.9 16.9-12.8l133.4 18.5c16.5 2.3 32.6-3.2 44.4-14.9s17.2-27.9 14.9-44.4l-18.5-133.4c-1.1-8.2 4.6-15.8 12.8-16.9 8.2-1.1 15.8 4.6 16.9 12.8l18.5 133.4c3.6 25.9-5 51.3-23.4 69.7-15.7 15.7-36.4 24.2-58.1 24.2z" fill="#1e99d9" /></svg>